<mxfile host="app.diagrams.net" agent="Mozilla/5.0 (X11; Ubuntu; Linux x86_64; rv:138.0) Gecko/20100101 Firefox/138.0" version="26.2.14">
  <diagram name="Page-1" id="RPy8os46dpxobSEGktIa">
    <mxGraphModel dx="475" dy="266" grid="1" gridSize="5" guides="1" tooltips="1" connect="1" arrows="1" fold="1" page="1" pageScale="1" pageWidth="850" pageHeight="1100" math="0" shadow="0">
      <root>
        <mxCell id="0" />
        <mxCell id="1" parent="0" />
        <mxCell id="nMr27f2tk039IhaEX52X-24" value="" style="rounded=0;whiteSpace=wrap;html=1;fillColor=none;dashed=1;dashPattern=1 1;" vertex="1" parent="1">
          <mxGeometry x="215" y="215" width="100" height="125" as="geometry" />
        </mxCell>
        <mxCell id="nMr27f2tk039IhaEX52X-26" value="" style="rounded=0;whiteSpace=wrap;html=1;fillColor=none;dashed=1;dashPattern=1 1;" vertex="1" parent="1">
          <mxGeometry x="145" y="215" width="65" height="125" as="geometry" />
        </mxCell>
        <mxCell id="nMr27f2tk039IhaEX52X-28" style="edgeStyle=orthogonalEdgeStyle;rounded=0;orthogonalLoop=1;jettySize=auto;html=1;exitX=1;exitY=0.5;exitDx=0;exitDy=0;" edge="1" parent="1" source="nMr27f2tk039IhaEX52X-1">
          <mxGeometry relative="1" as="geometry">
            <mxPoint x="540" y="279.98850574712645" as="targetPoint" />
          </mxGeometry>
        </mxCell>
        <mxCell id="nMr27f2tk039IhaEX52X-1" value="" style="ellipse;whiteSpace=wrap;html=1;aspect=fixed;" vertex="1" parent="1">
          <mxGeometry x="320" y="240" width="80" height="80" as="geometry" />
        </mxCell>
        <mxCell id="nMr27f2tk039IhaEX52X-14" value="" style="endArrow=classic;html=1;rounded=0;entryX=0.058;entryY=0.73;entryDx=0;entryDy=0;entryPerimeter=0;endFill=1;" edge="1" parent="1" target="nMr27f2tk039IhaEX52X-1">
          <mxGeometry width="50" height="50" relative="1" as="geometry">
            <mxPoint x="220" y="320" as="sourcePoint" />
            <mxPoint x="320" y="300" as="targetPoint" />
          </mxGeometry>
        </mxCell>
        <mxCell id="nMr27f2tk039IhaEX52X-16" value="" style="endArrow=none;html=1;rounded=1;curved=0;" edge="1" parent="1">
          <mxGeometry width="50" height="50" relative="1" as="geometry">
            <mxPoint x="160" y="320" as="sourcePoint" />
            <mxPoint x="200" y="320" as="targetPoint" />
            <Array as="points">
              <mxPoint x="165" y="320" />
              <mxPoint x="170" y="300" />
              <mxPoint x="180" y="330" />
              <mxPoint x="185" y="320" />
            </Array>
          </mxGeometry>
        </mxCell>
        <mxCell id="nMr27f2tk039IhaEX52X-17" value="" style="endArrow=classic;html=1;rounded=0;endFill=1;" edge="1" parent="1" target="nMr27f2tk039IhaEX52X-1">
          <mxGeometry width="50" height="50" relative="1" as="geometry">
            <mxPoint x="220" y="240" as="sourcePoint" />
            <mxPoint x="320" y="220" as="targetPoint" />
          </mxGeometry>
        </mxCell>
        <mxCell id="nMr27f2tk039IhaEX52X-18" value="" style="endArrow=none;dashed=1;html=1;dashPattern=1 3;strokeWidth=2;rounded=0;" edge="1" parent="1">
          <mxGeometry width="50" height="50" relative="1" as="geometry">
            <mxPoint x="185" y="295" as="sourcePoint" />
            <mxPoint x="185" y="255" as="targetPoint" />
          </mxGeometry>
        </mxCell>
        <mxCell id="nMr27f2tk039IhaEX52X-19" value="" style="endArrow=none;html=1;rounded=1;curved=0;" edge="1" parent="1">
          <mxGeometry width="50" height="50" relative="1" as="geometry">
            <mxPoint x="160" y="240" as="sourcePoint" />
            <mxPoint x="200" y="240" as="targetPoint" />
            <Array as="points">
              <mxPoint x="165" y="240" />
              <mxPoint x="170" y="220" />
              <mxPoint x="180" y="250" />
              <mxPoint x="185" y="240" />
            </Array>
          </mxGeometry>
        </mxCell>
        <mxCell id="nMr27f2tk039IhaEX52X-20" value="" style="endArrow=none;html=1;rounded=1;curved=0;" edge="1" parent="1">
          <mxGeometry width="50" height="50" relative="1" as="geometry">
            <mxPoint x="270" y="325" as="sourcePoint" />
            <mxPoint x="310" y="325" as="targetPoint" />
            <Array as="points">
              <mxPoint x="275" y="325" />
              <mxPoint x="280" y="315" />
              <mxPoint x="290" y="330" />
              <mxPoint x="295" y="325" />
            </Array>
          </mxGeometry>
        </mxCell>
        <mxCell id="nMr27f2tk039IhaEX52X-21" value="" style="endArrow=none;html=1;rounded=1;curved=0;" edge="1" parent="1">
          <mxGeometry width="50" height="50" relative="1" as="geometry">
            <mxPoint x="270" y="250" as="sourcePoint" />
            <mxPoint x="310" y="250" as="targetPoint" />
            <Array as="points">
              <mxPoint x="275" y="250" />
              <mxPoint x="280" y="235" />
              <mxPoint x="290" y="255" />
              <mxPoint x="295" y="250" />
            </Array>
          </mxGeometry>
        </mxCell>
        <mxCell id="nMr27f2tk039IhaEX52X-22" value="&lt;font style=&quot;font-size: 8px;&quot;&gt;W&lt;sub&gt;0&lt;/sub&gt;&lt;/font&gt;" style="text;html=1;align=center;verticalAlign=middle;whiteSpace=wrap;rounded=0;" vertex="1" parent="1">
          <mxGeometry x="250" y="255" width="25" height="15" as="geometry" />
        </mxCell>
        <mxCell id="nMr27f2tk039IhaEX52X-23" value="&lt;font style=&quot;font-size: 8px;&quot;&gt;W&lt;sub&gt;n&lt;/sub&gt;&lt;/font&gt;" style="text;html=1;align=center;verticalAlign=middle;whiteSpace=wrap;rounded=0;" vertex="1" parent="1">
          <mxGeometry x="250" y="295" width="25" height="15" as="geometry" />
        </mxCell>
        <mxCell id="nMr27f2tk039IhaEX52X-25" value="Synapses" style="text;html=1;align=center;verticalAlign=middle;whiteSpace=wrap;rounded=0;" vertex="1" parent="1">
          <mxGeometry x="240" y="190" width="60" height="30" as="geometry" />
        </mxCell>
        <mxCell id="nMr27f2tk039IhaEX52X-27" value="&lt;div&gt;Input Spikes&lt;/div&gt;" style="text;html=1;align=center;verticalAlign=middle;whiteSpace=wrap;rounded=0;" vertex="1" parent="1">
          <mxGeometry x="147.5" y="185" width="60" height="30" as="geometry" />
        </mxCell>
        <mxCell id="nMr27f2tk039IhaEX52X-29" value="" style="endArrow=none;html=1;rounded=1;curved=0;" edge="1" parent="1">
          <mxGeometry width="50" height="50" relative="1" as="geometry">
            <mxPoint x="445" y="267.5" as="sourcePoint" />
            <mxPoint x="485" y="267.5" as="targetPoint" />
            <Array as="points">
              <mxPoint x="450" y="267.5" />
              <mxPoint x="455" y="247.5" />
              <mxPoint x="465" y="277.5" />
              <mxPoint x="470" y="267.5" />
            </Array>
          </mxGeometry>
        </mxCell>
        <mxCell id="nMr27f2tk039IhaEX52X-30" value="" style="rounded=0;whiteSpace=wrap;html=1;fillColor=none;dashed=1;dashPattern=1 1;" vertex="1" parent="1">
          <mxGeometry x="405" y="215" width="115" height="125" as="geometry" />
        </mxCell>
        <mxCell id="nMr27f2tk039IhaEX52X-31" value="Axon" style="text;html=1;align=center;verticalAlign=middle;whiteSpace=wrap;rounded=0;" vertex="1" parent="1">
          <mxGeometry x="432.5" y="190" width="60" height="30" as="geometry" />
        </mxCell>
        <mxCell id="nMr27f2tk039IhaEX52X-32" value="" style="endArrow=none;html=1;rounded=0;curved=0;" edge="1" parent="1">
          <mxGeometry width="50" height="50" relative="1" as="geometry">
            <mxPoint x="340" y="300" as="sourcePoint" />
            <mxPoint x="380" y="300" as="targetPoint" />
            <Array as="points">
              <mxPoint x="345" y="280" />
              <mxPoint x="350" y="280" />
              <mxPoint x="355" y="270" />
              <mxPoint x="360" y="285" />
              <mxPoint x="365" y="265" />
              <mxPoint x="370" y="255" />
              <mxPoint x="370" y="300" />
            </Array>
          </mxGeometry>
        </mxCell>
        <mxCell id="nMr27f2tk039IhaEX52X-33" value="Spiking neuron" style="text;html=1;align=center;verticalAlign=middle;whiteSpace=wrap;rounded=0;" vertex="1" parent="1">
          <mxGeometry x="330" y="210" width="60" height="30" as="geometry" />
        </mxCell>
      </root>
    </mxGraphModel>
  </diagram>
</mxfile>
